<svg version="1.1" id="Capa_1" xmlns="http://www.w3.org/2000/svg" x="0" y="0" viewBox="0 0 384 384" xml:space="preserve"><path d="M382.417 146.76c-4.698-19.198-20.898-34.833-40.305-38.896-1.602-.336-3.199-.277-4.804-.469C322.869 44.792 267.832 0 202.683 0h-21.335C116.211 0 61.165 44.801 46.719 107.397c-10.208 1.294-19.961 5.198-27.925 11.967A53.28 53.28 0 000 160c0 16.677 8.042 32.427 21.335 42.448v96.219c0 15.725 8.643 29.333 21.335 36.733V352c0 17.646 14.355 32 32.003 32s32.003-14.354 32.003-32v-10.667h170.681V352c0 17.646 14.355 32 32.003 32s32.003-14.354 32.003-32v-16.6c12.692-7.4 21.335-21.008 21.335-36.733v-96.208c17.052-12.792 24.917-34.417 19.719-55.699zM181.333 21.333h21.333c54.017 0 99.757 36.421 113.085 87.714-6.724 1.96-13.126 5.023-18.689 9.536-12.542 10.187-19.729 25.281-19.729 41.417v53.333H106.667v-51.052c0-24.93-16.172-46.656-38.408-53.293 13.34-51.254 59.082-87.655 113.074-87.655zm117.334 224c0 5.885-4.781 10.667-10.667 10.667H96c-5.885 0-10.667-4.781-10.667-10.667 0-5.885 4.781-10.667 10.667-10.667h192c5.885.001 10.667 4.782 10.667 10.667zM85.333 352c0 5.885-4.781 10.667-10.667 10.667C68.781 362.667 64 357.885 64 352v-10.667h21.333V352zM320 352c0 5.885-4.781 10.667-10.667 10.667-5.885 0-10.667-4.781-10.667-10.667v-10.667H320V352zm26.635-164.469a10.66 10.66 0 00-5.302 9.219v101.917c0 11.76-9.573 21.333-21.333 21.333H64c-11.76 0-21.333-9.573-21.333-21.333V196.75c0-3.792-2.021-7.302-5.302-9.219-10.042-5.843-16.032-16.135-16.032-27.531a31.975 31.975 0 0111.281-24.385c7.271-6.188 16.594-8.729 26.167-7.167 15.135 2.458 26.552 17.01 26.552 33.833v53.017C72.944 219.716 64 231.445 64 245.333c0 17.646 14.354 32 32 32h192c17.646 0 32-14.354 32-32 0-13.888-8.944-25.617-21.333-30.035V160c0-9.688 4.313-18.74 11.844-24.854 7.635-6.198 17.292-8.479 27.198-6.406 11.542 2.417 21.167 11.698 23.948 23.083 3.51 14.344-2.386 28.354-15.022 35.708z"/></svg>