<svg id="Capa_1" height="512" width="512" xmlns="http://www.w3.org/2000/svg"><path d="M427.495 301.308c-20.443-44.489-49.41-82.276-84.148-109.93l27.02-90.068c.42-1.398.633-2.85.633-4.31 0-21.275-20.706-38.199-50.533-43.361l9.945-34.477c2.296-7.959-2.295-16.273-10.255-18.57-7.957-2.295-16.273 2.295-18.57 10.255l-12.036 41.727C277.054 53.82 265.493 57.09 256 62.068c-9.493-4.978-21.054-8.248-33.551-9.495l-12.036-41.727c-2.296-7.96-10.614-12.551-18.57-10.255-7.96 2.296-12.551 10.61-10.255 18.57l9.945 34.477C161.706 58.801 141 75.725 141 97c0 1.46.213 2.912.633 4.31l27.02 90.068c-34.738 27.654-63.706 65.442-84.148 109.93C62.586 349.01 51 403.247 51 458.155v1.345a15 15 0 009.372 13.904C123.636 499.015 189.455 512 256 512s132.364-12.985 195.628-38.596A15 15 0 00461 459.5v-1.345c0-54.908-11.586-109.145-33.505-156.847zM141 459.5v8.555c-20.169-4.942-40.154-11.187-59.892-18.73C83.489 352.167 125.016 262.323 190.977 212h5.336c-16.302 26.64-29.829 61.711-39.357 102.209C143.768 370.255 141 424.154 141 459.5zm100 22.259a481.158 481.158 0 01-70-7.344V459.5c0-33.758 2.63-85.175 15.157-138.419 9.757-41.471 23.76-76.319 40.494-100.776l5.682-8.304H241zM197.161 182l-25.866-86.22C173.512 90.799 188.128 82 211 82c17.246 0 29.802 4.977 35.803 9.634a15.003 15.003 0 0018.395 0C271.198 86.977 283.754 82 301 82c22.872 0 37.488 8.799 39.706 13.78L314.839 182zM341 474.415a481.019 481.019 0 01-70 7.344V212h8.667l5.682 8.304C319.676 270.474 341 362.128 341 459.5zm30-6.36V459.5c0-99.439-20.551-190.834-55.305-247.5h5.328c65.961 50.323 107.488 140.167 109.869 237.326-19.738 7.542-39.723 13.787-59.892 18.729z"/></svg>