<svg id="Layer_1" height="512" width="512" xmlns="http://www.w3.org/2000/svg"><circle cx="320.267" cy="31.067" r="15"/><path d="M63.2 54.1h9.1v9.1c0 8.284 6.716 15 15 15s15-6.716 15-15v-9.1h9.101c8.284 0 15-6.716 15-15s-6.716-15-15-15H102.3V15c0-8.284-6.716-15-15-15s-15 6.716-15 15v9.1h-9.1c-8.284 0-15 6.716-15 15s6.716 15 15 15zm385.6 40.167c25.989 0 47.134-21.144 47.134-47.133S474.789 0 448.8 0s-47.133 21.144-47.133 47.133 21.144 47.134 47.133 47.134zm0-64.267c9.447 0 17.134 7.686 17.134 17.133s-7.687 17.133-17.134 17.133-17.133-7.686-17.133-17.133S439.353 30 448.8 30zm32.134 162.8h-49.267v-17.133c0-8.284-6.716-15-15-15h-17.134v-9.1c0-30.476-24.652-55.167-55.167-55.167-26.105 0-40.326 17.376-42.403 19.865-8.294-8.793-19.076-15.213-31.209-18.126-2.643-27.975-26.266-49.939-54.921-49.939s-52.277 21.96-54.92 49.935c-27.754 6.657-48.446 31.683-48.446 61.449v1.083H95.333c-8.284 0-15 6.716-15 15V192.8H31.066c-8.284 0-15 6.716-15 15 0 68.098 38.957 127.253 95.749 156.389l16.834 134.672a15 15 0 0014.884 13.14h224.934a15 15 0 0014.884-13.14l16.834-134.672c56.792-29.135 95.749-88.291 95.749-156.389 0-8.284-6.716-15-15-15zM319.2 151.567c0-13.857 11.263-25.167 25.166-25.167 13.943 0 25.167 11.347 25.167 25.167v9.1H319.2zm-176.733 8.017c0-18.298 14.886-33.184 33.2-33.184 8.284 0 15-6.716 15-15v-8.033c0-13.877 11.289-25.167 25.166-25.167S241 89.49 241 103.367v8.033c0 8.284 6.716 15 15 15 18.307 0 33.2 14.894 33.2 33.2v1.066H142.467zM46.833 222.8h33.5v17.133c0 8.284 6.716 15 15 15h2.826l8.916 71.333C73.997 302.563 51.208 265.372 46.833 222.8zM355.225 482h-198.45L143.62 376.752a174.565 174.565 0 0033.114 6.068v17.78c0 8.284 6.716 15 15 15h128.533c8.284 0 15-6.716 15-15v-17.78a174.565 174.565 0 0033.114-6.068zm-148.492-96.4v-34.267h98.533V385.6zm165.77-41.829a144.537 144.537 0 01-37.236 8.92v-16.358c0-8.284-6.716-15-15-15H191.733c-8.284 0-15 6.716-15 15v16.358a144.527 144.527 0 01-37.236-8.92l-11.104-88.838h255.215zm29.164-118.838H110.333v-34.267h291.334zm3.258 101.333l8.916-71.333h2.826c8.284 0 15-6.716 15-15V222.8h33.5c-4.375 42.572-27.164 79.763-60.242 103.466z"/></svg>