<svg id="Capa_1" height="512" viewBox="0 0 546.55 546.55" width="512" xmlns="http://www.w3.org/2000/svg"><path id="path-1_59_" d="M392.833 341.594c-28.255 0-51.239 22.984-51.239 51.239s22.984 51.239 51.239 51.239 51.239-22.984 51.239-51.239-22.984-51.239-51.239-51.239zm0 68.319c-9.424 0-17.08-7.656-17.08-17.08s7.656-17.08 17.08-17.08 17.08 7.656 17.08 17.08-7.656 17.08-17.08 17.08z" transform="translate(10 10)"/><path id="path-1_58_" d="M153.717 341.594c-28.255 0-51.239 22.984-51.239 51.239s22.984 51.239 51.239 51.239 51.239-22.984 51.239-51.239-22.984-51.239-51.239-51.239zm0 68.319c-9.424 0-17.08-7.656-17.08-17.08s7.656-17.08 17.08-17.08 17.08 7.656 17.08 17.08-7.656 17.08-17.08 17.08z" transform="translate(3 10)"/><path d="M529.47 102.478h-17.08v-17.08C512.391 38.312 474.078 0 426.992 0H119.558C72.472 0 34.159 38.312 34.159 85.398v17.08H17.08c-9.441 0-17.08 7.639-17.08 17.08v102.478c0 9.441 7.639 17.08 17.08 17.08h17.08v222.036c0 22.238 14.321 41.019 34.159 48.093v20.226c0 9.44 7.639 17.08 17.08 17.08h68.319c9.441 0 17.08-7.639 17.08-17.08v-17.08h204.956v17.08c0 9.44 7.639 17.08 17.08 17.08h68.319c9.441 0 17.08-7.639 17.08-17.08v-20.226c19.838-7.074 34.159-25.855 34.159-48.093V239.116h17.08c9.441 0 17.08-7.639 17.08-17.08V119.558c-.002-9.441-7.641-17.08-17.082-17.08zM426.992 34.159c28.255 0 51.239 22.984 51.239 51.239v187.877H290.355V34.159zm-307.434 0h136.637v239.116H68.319V85.398c0-28.254 22.984-51.239 51.239-51.239zm341.594 444.072H85.398c-9.424 0-17.08-7.656-17.08-17.08V307.434h409.913v153.717c0 9.424-7.656 17.08-17.079 17.08z"/></svg>