<svg xmlns="http://www.w3.org/2000/svg" version="1.1" id="Capa_1" x="0" y="0" viewBox="0 0 373.679 373.679" xml:space="preserve" width="512" height="512"><path d="M63.829 248.602a9 9 0 01-9 9H9c-4.971 0-9-4.029-9-9s4.029-9 9-9h45.829a9 9 0 019 9zm-9 23.325H34.338c-4.971 0-9 4.029-9 9s4.029 9 9 9h20.491c4.971 0 9-4.029 9-9s-4.029-9-9-9zm43.325-144.335a9 9 0 00-9 9c0 5.309-4.318 9.627-9.626 9.627-4.971 0-9 4.029-9 9s4.029 9 9 9c15.233 0 27.626-12.394 27.626-27.627a9 9 0 00-9-9zm-18.628 73.889c-35.082 0-63.624-28.543-63.624-63.626 0-32.737 30.294-71.402 50.341-96.987 2.196-2.803 4.266-5.443 6.149-7.893a9 9 0 017.125-3.512h.009a9.002 9.002 0 017.123 3.498c1.833 2.372 3.829 4.915 5.938 7.602 20.135 25.646 50.563 64.4 50.563 97.292 0 35.083-28.542 63.626-63.624 63.626zm45.624-63.626c0-26.146-27.022-61.077-45.614-84.767-18.514 23.635-45.633 58.655-45.633 84.767 0 25.158 20.467 45.626 45.624 45.626s45.623-20.468 45.623-45.626zm8.046 89.58a9 9 0 009 9h10.126c4.971 0 9-4.029 9-9s-4.029-9-9-9h-10.126a9 9 0 00-9 9zm179.94 65.325h-.023c-4.971 0-8.988 4.029-8.988 9s4.041 9 9.012 9 9-4.029 9-9-4.03-9-9.001-9zm60.5-25.457l-.025 5.546c-.017 3.626-.036 7.749-.036 12.761 0 10.762-7.74 20.081-18.652 23.625-3.541 19.858-20.937 34.98-41.798 34.98-23.41 0-42.456-19.045-42.456-42.455s19.046-42.456 42.456-42.456c19.148 0 35.377 12.741 40.651 30.191 1.128-1.144 1.799-2.492 1.799-3.886 0-5.044.02-9.194.036-12.844l.025-5.549c.036-7.466.085-17.69-.025-22.46-.074-3.288-.163-5.986-.394-8.32H216.762c-3.23 0-10.796 0-33.943-22.876-7.053-6.97-21.072-21.802-23.649-28.05a9 9 0 014.887-11.752c4.525-1.868 9.695.227 11.663 4.678 1.223 2.192 8.542 11.172 19.149 21.724 13.36 13.291 20.46 17.593 22.394 18.276h127.84c-2.895-2.775-6.607-6.065-11.377-10.29a1665.775 1665.775 0 01-8.187-7.288c-2.172-1.949-4.335-4.016-6.427-6.015-3.066-2.93-6.237-5.96-9.539-8.726-2.904-2.434-5.654-4.749-8.271-6.951-33.406-28.129-42.385-35.688-70.555-35.688h-62.132c-4.971 0-9-4.029-9-9s4.029-9 9-9h62.132c34.738 0 48.618 11.687 82.148 39.92 2.604 2.192 5.343 4.498 8.235 6.921 3.753 3.144 7.141 6.38 10.416 9.51 2.084 1.991 4.053 3.873 6.015 5.634 2.955 2.652 5.648 5.038 8.1 7.211 21.572 19.112 27.37 24.249 27.945 49.673.116 5.016.066 15.385.03 22.956zm-36.054 34.588a7.577 7.577 0 01-.001-.337c-.111-13.391-11.039-24.25-24.456-24.25-13.485 0-24.456 10.971-24.456 24.456 0 13.484 10.971 24.455 24.456 24.455 13.442 0 24.385-10.899 24.457-24.324zm-86.638-.132a9 9 0 01-9 9h-51.965c-4.139 19.103-21.173 33.456-41.497 33.456-20.843 0-38.226-15.097-41.789-34.929-7.211-2.285-13.16-7.098-16.355-13.52-1.601-3.213-2.414-6.632-2.414-10.157v-60.013c0-4.971 4.029-9 9-9s9 4.029 9 9v60.013c0 .715.177 1.433.526 2.134.306.615.763 1.24 1.356 1.831 5.25-17.49 21.498-30.271 40.675-30.271 20.323 0 37.356 14.354 41.496 33.455h51.966a9.002 9.002 0 019.001 9.001zm-78.006.001c0-13.485-10.971-24.456-24.457-24.456-13.459 0-24.414 10.929-24.457 24.377v.091c.007 13.479 10.975 24.443 24.457 24.443 13.486 0 24.457-10.97 24.457-24.455zm-24.444-9h-.023c-4.971 0-8.988 4.029-8.988 9s4.041 9 9.012 9 9-4.029 9-9-4.031-9-9.001-9z" data-original="#000000" class="active-path" data-old_color="#000000" fill="#34A1D3"/></svg>