<svg id="Layer_1" height="512" width="512" xmlns="http://www.w3.org/2000/svg"><path d="M488.489 8.542C482.993 3.034 475.683 0 467.904 0H198.419a28.958 28.958 0 00-16.567 5.182l-1.399.97-154.53 169.685a29.135 29.135 0 00-10.921 22.741L15 322.84c0 7.776 3.024 15.087 8.513 20.582 5.497 5.507 12.807 8.54 20.583 8.54 72.042.001 130.653 58.73 130.653 130.918 0 16.057 13.053 29.12 29.096 29.12H467.9c16.043 0 29.096-13.063 29.096-29.121L497 29.121c0-7.775-3.024-15.086-8.511-20.579zM45 321.964l.002-122.934 1.018-.706L199.31 30H467l-.003 352.47H169.551C140.261 345.83 95.334 322.245 45 321.964zM204.747 482c-.134-24.91-5.948-48.499-16.208-69.53h278.457V482z"/><path d="M438.397 206.235V69.324c0-8.284-6.716-15-15-15H227.314a14.998 14.998 0 00-11.097 4.908L91.7 196.143a15.001 15.001 0 0011.097 25.092h320.601c8.284 0 14.999-6.715 14.999-15zm-30-15H136.715l97.233-106.911h174.449zm15 54.999H321.451c-8.284 0-15 6.716-15 15 0 35.502 28.883 64.385 64.385 64.385h52.562c8.284 0 15-6.716 15-15v-49.385c-.001-8.284-6.716-15-15.001-15zm-15 49.385h-37.562c-13.586 0-25.356-7.919-30.938-19.385h68.499v19.385z"/></svg>