<svg height="512pt" viewBox="0 0 512 512" width="512pt" xmlns="http://www.w3.org/2000/svg"><path d="M512 286c0-24.813-20.188-45-45-45h-51.73l-17.563-35.125C390.035 190.531 374.613 181 357.461 181H154.539c-17.152 0-32.574 9.531-40.246 24.875L96.73 241H45c-24.812 0-45 20.188-45 45 0 21.05 14.531 38.766 34.086 43.656A44.737 44.737 0 0031 346v60c0 19.555 12.54 36.227 30 42.422V467c0 24.813 20.188 45 45 45h30c24.813 0 45-20.188 45-45v-16h150v16c0 24.813 20.188 45 45 45h30c24.813 0 45-20.188 45-45v-18.578c17.46-6.195 30-22.867 30-42.422v-60a44.747 44.747 0 00-3.168-16.55c7.508-1.993 14.465-5.864 20.246-11.395C507.055 309.473 512 298.09 512 286zm-370.875-66.707c2.559-5.117 7.7-8.293 13.414-8.293h202.922c5.715 0 10.855 3.176 13.414 8.293 1.965 3.926 30.906 61.809 40.855 81.707H100.27c4.988-9.973 34.312-68.621 40.855-81.707zM45 271h36.73l-15 30H45c-8.27 0-15-6.73-15-15s6.73-15 15-15zm106 196c0 8.27-6.73 15-15 15h-30c-8.27 0-15-6.73-15-15v-16h60zm255 15h-30c-8.27 0-15-6.73-15-15v-16h60v16c0 8.27-6.73 15-15 15zm30-61H331v-45c0-8.285-6.715-15-15-15s-15 6.715-15 15v45h-30v-45c0-8.285-6.715-15-15-15s-15 6.715-15 15v45h-30v-45c0-8.285-6.715-15-15-15s-15 6.715-15 15v45H76c-8.27 0-15-6.73-15-15v-15h45c8.285 0 15-6.715 15-15s-6.715-15-15-15H61v-15c0-8.27 6.73-15 15-15h360c8.27 0 15 6.73 15 15v15h-45c-8.285 0-15 6.715-15 15s6.715 15 15 15h45v15c0 8.27-6.73 15-15 15zm30-120h-20.73l-15-30H467c8.27 0 15 6.73 15 15 0 7.992-7.477 15-16 15zM106 150h90c19.555 0 36.227-12.54 42.422-30H406a14.98 14.98 0 0010.605-4.395l30-30c5.86-5.855 5.86-15.351 0-21.21l-30-30A14.98 14.98 0 00406 30H238.422C232.227 12.54 215.555 0 196 0h-60C94.645 0 61 33.645 61 75v30c0 24.813 20.188 45 45 45zm308.785-75l-15 15H241V60h158.785zM91 75c0-24.813 20.188-45 45-45h60c8.27 0 15 6.73 15 15v60c0 8.27-6.73 15-15 15h-90c-8.27 0-15-6.73-15-15zm0 0"/><path d="M150.973 75c0 8.285-6.72 15-15 15-8.286 0-15-6.715-15-15s6.715-15 15-15c8.28 0 15 6.715 15 15zm0 0"/></svg>