<svg version="1.1" id="Capa_1" xmlns="http://www.w3.org/2000/svg" x="0" y="0" width="102.304" height="102.304" xml:space="preserve"><path d="M93.608 51.694c-2.468-1.368-5.257-1.984-8.038-1.984V7.163a2.805 2.805 0 00-2.802-2.802H2.802A2.804 2.804 0 000 7.163V77.74a2.812 2.812 0 002.802 2.805h47.831c.695 0 1.305-.293 1.792-.701 6.898 8.76 19.044 16.567 20.812 17.668.459.3.973.432 1.489.432.515 0 1.038-.132 1.499-.432 2.32-1.456 22.748-14.584 25.237-25.908.562-1.699.841-3.437.841-5.195a16.78 16.78 0 00-8.695-14.715zM5.604 74.917V43.423h21.51l7.554 23.5a2.801 2.801 0 002.667 1.943h.093a2.803 2.803 0 002.624-2.125l8.342-33.376 1.615 11.289a2.801 2.801 0 002.773 2.405H70.96a2.804 2.804 0 002.802-2.801 2.805 2.805 0 00-2.802-2.803H55.21l-3.294-23.034a2.806 2.806 0 00-2.63-2.405c-1.434-.063-2.538.818-2.862 2.123l-9.43 37.725-5.18-16.102a2.799 2.799 0 00-2.664-1.948H5.598V9.948h74.369V50.63c-1.904.644-3.708 1.579-5.248 2.873-5.142-4.297-12.94-5.122-18.889-1.828a16.814 16.814 0 00-8.688 14.717c0 1.783.283 3.55.766 4.925.264 1.187.752 2.391 1.352 3.61H5.604v-.01zm90.461-4.816c-1.62 7.316-14.802 17.353-21.347 21.691-6.542-4.334-19.728-14.386-21.422-21.977a10.67 10.67 0 01-.552-3.414 11.202 11.202 0 0111.178-11.196c3.356 0 6.501 1.488 8.637 4.071a2.85 2.85 0 002.159 1.007c.84 0 1.633-.372 2.156-1.018 3.344-4.033 9.461-5.204 14.009-2.671a11.207 11.207 0 015.812 9.812c0 1.157-.181 2.306-.63 3.695z"/></svg>