<svg height="512pt" viewBox="-73 0 512 512" width="512pt" xmlns="http://www.w3.org/2000/svg"><path d="M54.426 135.785c8.164-1.41 13.636-9.168 12.23-17.332C58.668 72.164 94.375 30 141.051 30c46.535 0 82.304 41.965 74.426 88.27-1.387 8.168 4.105 15.914 12.273 17.304 8.168 1.395 15.914-4.105 17.305-12.273C256.015 58.85 206.273 0 141.05 0 75.902 0 25.92 58.844 37.094 123.555c1.41 8.187 9.199 13.636 17.332 12.23zm0 0"/><path d="M300.664 240.645c-11.242-22.067-38.02-30.875-60-20-10.219-20.06-33.59-29.536-54.832-22.16V106.62c0-24.484-19.676-44.941-43.867-45.605-25.348-.72-46.352 19.582-46.352 44.984v231.082l-17.62-18.453c-16.915-17.707-45.235-18.953-63.138-2.77-18.89 17.075-19.832 46.149-2.437 64.422L113.691 488.3c14.121 15.059 34.067 23.7 54.715 23.7h122.145c41.355 0 75-33.645 75-75V281c0-33.23-35.051-55.117-64.887-40.355zM335.551 437c0 24.813-20.188 45-45 45H168.406c-12.39 0-24.355-5.184-32.828-14.223-.363-.382-101.05-107.777-101.414-108.16-5.8-6.078-5.523-15.777.805-21.504 5.965-5.386 15.531-4.832 21.324 1.235l43.469 45.52c9.32 9.765 25.847 3.14 25.847-10.356V106c0-8.43 6.993-15.234 15.54-14.996 8.097.223 14.683 7.226 14.683 15.617 0 165.055-.281 90.238-.281 179.379 0 8.309 6.765 15.078 15.14 14.992 8.364.086 15.141-6.68 15.141-14.992v-47.852c1.336-6.914 7.422-12.148 14.719-12.148 8.27 0 15 6.73 15 15v45c0 8.285 6.715 15 15 15s15-6.715 15-15v-25c0-8.27 6.73-15 15-15s15 6.73 15 15v25c0 8.285 6.715 15 15 15s15-6.715 15-15v-5c0-8.27 6.73-15 15-15s15 6.73 15 15zm0 0"/></svg>