<svg version="1.1" id="Capa_1" xmlns="http://www.w3.org/2000/svg" x="0" y="0" viewBox="0 0 512.001 512.001" xml:space="preserve"><path d="M398.716 35.304H113.284L0 188.802l256 287.895 256.001-287.895L398.716 35.304zm-.826 49.472l65.038 88.124H375.53l22.36-88.124zm-26.065-19.429L349.53 153.22l-64.004-87.873h86.299zm-45.128 107.554H185.304L256 75.841l70.697 97.06zM226.475 65.347L162.47 153.22l-22.296-87.873h86.301zM114.111 84.776l22.36 88.124H49.073l65.038-88.124zM52.777 202.943h92.607l68.014 180.633L52.777 202.943zm203.222 208.521l-78.515-208.52h157.03l-78.515 208.52zm42.604-27.888l68.014-180.633h92.608L298.603 383.576z"/></svg>