<svg id="Capa_1" height="512" width="512" xmlns="http://www.w3.org/2000/svg"><path d="M512 174.817v-30h-71.605c-24.813 0-45-20.187-45-45s20.187-45 45-45v-30h-278.79c-41.355 0-75 33.645-75 75 0 16.871 5.603 32.456 15.041 45H75c-41.355 0-75 33.645-75 75 0 24.508 11.818 46.306 30.052 60C11.818 293.512 0 315.31 0 339.817c0 41.355 33.645 75 75 75h62.802v72.365l62.494-30.885 62.495 30.885v-72.365H512v-30c-24.813 0-45-20.187-45-45s20.187-45 45-45v-30c-24.813 0-45-20.187-45-45s20.187-45 45-45zm-395.395-75c0-24.813 20.187-45 45-45h218.83c-6.565 8.725-11.274 18.922-13.531 30H169.382v30h197.522c2.258 11.078 6.967 21.275 13.531 30h-218.83c-24.813 0-45-20.186-45-45zm83.691 323.018l-32.494 16.059v-84.076h64.989v84.076zm62.495-38.018v-30h175.718c2.258 11.078 6.967 21.275 13.531 30zm175.718-60H82.776v30h55.025v30H75c-24.813 0-45-20.187-45-45s20.187-45 45-45h377.041c-6.565 8.726-11.274 18.922-13.532 30zM75 264.817c-24.813 0-45-20.187-45-45s20.187-45 45-45h377.041c-6.565 8.725-11.274 18.922-13.531 30H82.776v30h355.733c2.258 11.078 6.967 21.275 13.531 30z"/></svg>