<svg version="1.1" id="Capa_1" xmlns="http://www.w3.org/2000/svg" x="0" y="0" width="978.549" height="978.548" xml:space="preserve"><path d="M120.233 705.269c37.688 37.688 81.586 67.281 130.472 87.959 50.632 21.416 104.395 32.273 159.797 32.273 47.91 0 94.593-8.127 139.085-24.172l-7.349 86.784 125.603-93.877 72.687 179.814 155.15-62.716-72.686-179.814 155.557-19.774-181.42-158.488c15.849-44.244 23.876-90.646 23.876-138.26 0-55.402-10.857-109.166-32.272-159.797-20.679-48.887-50.271-92.784-87.96-130.472-37.689-37.688-81.586-67.282-130.474-87.959C519.668 15.355 465.904 4.498 410.502 4.498S301.337 15.355 250.705 36.771c-48.886 20.677-92.783 50.271-130.472 87.959-37.689 37.688-67.282 81.586-87.96 130.472C10.858 305.834 0 359.598 0 415s10.858 109.166 32.273 159.797c20.678 48.886 50.272 92.784 87.96 130.472zm610.884-27.592l79.938 197.756-34.626 13.997-74.798-185.041-5.14-12.716-77.276 57.759 5.935-70.072 14.983-176.94 74.851 65.388 54.059 47.227 57.782 50.478-95.708 12.164zM169.73 174.229c64.312-64.312 149.82-99.731 240.771-99.731 90.952 0 176.46 35.418 240.772 99.731 64.312 64.312 99.729 149.82 99.729 240.771 0 30.115-3.906 59.626-11.436 87.977l-153.37-133.983-29.974 353.946c-44.969 21.317-94.481 32.562-145.724 32.562-90.951 0-176.459-35.418-240.771-99.73-64.312-64.313-99.73-149.82-99.73-240.771.002-90.952 35.421-176.46 99.733-240.772z"/><path d="M410.502 229.515c49.348 0 89.494 40.146 89.494 89.494s-40.146 89.494-89.494 89.494h-35v135.495h70v-69.364c71.169-15.993 124.494-79.697 124.494-155.625 0-87.945-71.549-159.494-159.494-159.494-33.062 0-64.786 10.033-91.743 29.015-26.319 18.532-46.214 44.196-57.532 74.216l65.499 24.696c13.063-34.649 46.73-57.927 83.776-57.927zm-33.555 353.298h67.109v67.108h-67.109z"/></svg>