<svg version="1.1" id="Capa_1" xmlns="http://www.w3.org/2000/svg" x="0" y="0" viewBox="0 0 477.875 477.875" xml:space="preserve"><path d="M460.804 0H17.071C7.645 0 .004 7.641.004 17.067V102.4a17.067 17.067 0 005.649 12.681l165.018 148.514V460.8c-.004 9.426 7.633 17.07 17.059 17.075a17.068 17.068 0 007.637-1.8l102.4-51.2a17.067 17.067 0 009.438-15.275V263.595l165.018-148.48a17.061 17.061 0 005.649-12.715V17.067C477.871 7.641 470.23 0 460.804 0zm-17.067 94.805L278.72 243.285A17.065 17.065 0 00273.071 256v143.053l-68.267 34.133V256a17.063 17.063 0 00-5.649-12.68L34.137 94.805V34.133h409.6v60.672z"/></svg>