<svg id="Capa_1" height="512" viewBox="0 0 511.869 511.869" width="512" xmlns="http://www.w3.org/2000/svg"><path d="M461.625 197.381A155.602 155.602 0 00378 146.934v-10.961c0-36.607-29.783-66.391-66.391-66.391h-96.435v37.07c0 17.337 6.687 33.136 17.608 44.973a245.464 245.464 0 00-112.546 66.623c-7.044-29.095-33.289-50.774-64.518-50.774H0v37.07c0 20.696 9.523 39.206 24.413 51.391C9.523 268.119 0 286.629 0 307.325v37.071h55.717c31.229 0 57.475-21.68 64.518-50.775a245.464 245.464 0 00112.546 66.623c-10.921 11.837-17.608 27.636-17.608 44.973v37.07h96.435c36.608 0 66.391-29.783 66.391-66.391v-10.961a155.59 155.59 0 0083.625-50.447l50.245-58.554zM30 204.544v-7.07h25.717c20.066 0 36.391 16.325 36.391 36.391v7.07H66.391C46.325 240.934 30 224.609 30 204.544zm62.108 73.461c0 20.066-16.325 36.392-36.391 36.392H30v-7.071c0-20.065 16.325-36.391 36.391-36.391h25.717zm189.456-134.962c-20.066 0-36.391-16.325-36.391-36.391v-7.07h66.435c20.066 0 36.391 16.325 36.391 36.391v7.07zM133.406 263.548l-6.533-7.613 6.533-7.613c41.051-47.84 100.75-75.278 163.79-75.278h40.686c-13.676 25.319-20.817 53.535-20.817 82.892s7.141 57.572 20.817 82.892h-40.686c-63.04-.002-122.739-27.441-163.79-75.28zm214.593 105.278v7.07c0 20.065-16.325 36.391-36.391 36.391h-66.435v-7.07c0-20.065 16.325-36.391 36.391-36.391zm90.858-73.873a125.633 125.633 0 01-67.87 40.813c-15.679-23.686-23.923-51.098-23.923-79.832s8.244-56.146 23.922-79.832a125.64 125.64 0 0167.871 40.813l33.48 39.019z"/></svg>