<svg id="Capa_1" height="512" width="512" xmlns="http://www.w3.org/2000/svg"><path d="M462.404 82.683a15.001 15.001 0 00-10.638-7.18c-24.01-3.673-48.104 2.858-66.892 16.954-5.331-22.875-19.598-43.366-40.344-55.984a15 15 0 00-12.764-1.337c-.263.092-.512.212-.768.319V15.001A15 15 0 00313.057.293C289.249 5.054 268.834 19.433 256 39.102 243.166 19.434 222.751 5.055 198.941.293A14.997 14.997 0 00181 15.001v20.453c-.256-.106-.505-.226-.768-.319a14.993 14.993 0 00-12.764 1.337c-20.746 12.619-35.012 33.109-40.344 55.983-18.787-14.093-42.89-20.624-66.892-16.953A14.997 14.997 0 0048.403 95.46l27.362 75.175a75.098 75.098 0 0012.258 21.668 14.976 14.976 0 00-5.292 5.698 15 15 0 00.888 15.468L197.561 380H186c-8.284 0-15 6.716-15 15s6.716 15 15 15h19.953l-24.343 82.768a15 15 0 0014.391 19.233h120a15 15 0 0014.391-19.233L306.047 410H326c8.284 0 15-6.716 15-15s-6.716-15-15-15h-11.562L428.38 213.47a15.002 15.002 0 00.888-15.468 14.969 14.969 0 00-5.292-5.698 75.106 75.106 0 0012.258-21.667l27.362-75.175a15.002 15.002 0 00-1.192-12.779zM239.416 380c-2.955-37.724 6.017-69.529 26.76-94.678 31.726-38.465 84.529-54.458 118.421-60.988L278.088 380zm-33.171-190a75.688 75.688 0 007.971-13.319 75.534 75.534 0 005.399-16.128 74.44 74.44 0 0021.384 7.938V190zM271 168.492a74.47 74.47 0 0021.384-7.938 75.59 75.59 0 005.399 16.128 75.688 75.688 0 007.971 13.319H271zM211 36.527c14.892 8.683 25.667 23.714 28.587 41.236l1.617 9.704A15 15 0 00256 100.001a15 15 0 0014.796-12.534l1.617-9.704c2.92-17.522 13.695-32.554 28.587-41.236v58.474c0 24.813-20.187 45-45 45s-45-20.187-45-45zM124.924 134.4l4.84 8.565a15 15 0 0027.806-10.121l-1.799-9.672c-3.249-17.464 1.735-35.275 12.759-48.527l19.999 54.948c4.111 11.295 3.578 23.515-1.502 34.409s-14.098 19.157-25.393 23.269c-11.298 4.111-23.518 3.577-34.409-1.502-10.894-5.08-19.157-14.098-23.268-25.393l-20-54.948c16.964 3.066 32.23 13.506 40.967 28.972zM302.648 220c-21.642 10.938-42.751 25.828-59.516 46.111-18.613 22.52-29.674 48.953-33.122 78.956L124.438 220zm-86.601 262l21.177-72h37.553l21.177 72zm191.995-321.624c-4.11 11.295-12.374 20.312-23.268 25.393-10.893 5.08-23.113 5.613-34.409 1.502-11.295-4.111-20.312-12.375-25.393-23.269s-5.613-23.114-1.502-34.409l19.999-54.948c11.023 13.252 16.008 31.062 12.759 48.527l-1.799 9.672a15 15 0 009.617 16.838c6.885 2.509 14.583-.333 18.189-6.717l4.84-8.566c8.737-15.468 24.001-25.908 40.966-28.973z"/></svg>