<svg version="1.1" id="Capa_1" xmlns="http://www.w3.org/2000/svg" x="0" y="0" viewBox="0 0 270 270" xml:space="preserve"><path d="M114 0H10C4.5 0 0 4.5 0 10v104c0 5.5 4.5 10 10 10h104c5.5 0 10-4.5 10-10V10c0-5.5-4.5-10-10-10zm-10 104H20V20h84v84zM260 0H156c-5.5 0-10 4.5-10 10v104c0 5.5 4.5 10 10 10h104c5.5 0 10-4.5 10-10V10c0-5.5-4.5-10-10-10zm-10 104h-84V20h84v84zm-136 42H10c-5.5 0-10 4.5-10 10v104c0 5.5 4.5 10 10 10h104c5.5 0 10-4.5 10-10V156c0-5.5-4.5-10-10-10zm-10 104H20v-84h84v84zm156-104H156c-5.5 0-10 4.5-10 10v104c0 5.5 4.5 10 10 10h104c5.5 0 10-4.5 10-10V156c0-5.5-4.5-10-10-10zm-10 104h-84v-84h84v84z"/></svg>