<svg version="1.1" id="Layer_1" xmlns="http://www.w3.org/2000/svg" x="0" y="0" viewBox="0 0 512 512" xml:space="preserve"><path d="M476.096 263.522v-59.72H356.522v-77.89l22.062-33.543c17.679-26.851 10.214-63.072-16.637-80.761a57.95 57.95 0 00-31.953-9.568c-19.761 0-38.001 9.797-48.808 26.205L218.51 123.54 154 0 1.515 79.626l30.255 57.939-.063-.021 2.887 374.395h239.753l-2.887.06h239.024V326.74l-34.388-63.218zM468.6 315.1H312.576l12.712-24.914 4.997-9.797h119.429L468.6 315.1zm-23.738-80.063v14.118H334.855v-14.118h110.007zM255.458 124.21l23.345 14.582 16.547-26.491-22.723-14.194.001-.001 17.105-26.016 29.121 18.19L335.4 63.789l-28.498-17.801v-.001l.375-.562c5.008-7.611 13.504-12.15 22.718-12.15 5.279 0 10.391 1.53 14.784 4.425 12.462 8.215 15.929 25.029 7.715 37.502l-55.763 84.79-33.514 12.494-24.258-9.787-3.904-7.475 20.403-31.014zM140.777 42.145l52.215 100.013-69.529 30.235-47.747-18.137L43.66 92.86l97.117-50.715zm130.684 284.814V477.82H62.942V182.824l34.535 13.118 26.747 10.151 55.899-24.196 19.834-7.746 62.812 31.838 4.904-1.832 49.537-18.459 8.079-3.019v21.125h-21.666v60.125l-32.162 63.03zm207.79 153.807H302.695V346.334h176.556v134.432z"/></svg>