<svg id="Capa_1" height="512" viewBox="0 0 512.001 512.001" width="512" xmlns="http://www.w3.org/2000/svg"><path d="M136.001 210.841c41.355 0 75-33.622 75-74.948 0-41.327-33.645-74.948-75-74.948s-75 33.622-75 74.948c0 41.327 33.644 74.948 75 74.948zm45-74.948c0 19.532-12.541 36.186-30 42.371V93.522c17.459 6.185 30 22.839 30 42.371zm-60-42.371v84.742c-17.459-6.185-30-22.839-30-42.371s12.541-36.186 30-42.371z"/><path d="M497.001 60.945h-61C212.383 60.945 232.668 0 135.702 0 62.792 0 1.032 59.979.013 132.975c-.664 47.705 23.334 90.188 61.328 115.016L101.014 409.1a34.93 34.93 0 0033.926 26.626c3.164 0 2.176.026 33.182-4.155C171.148 458.558 149.974 482 122.984 482c-21.34 0-40.034-15.135-44.452-35.99-3.115-14.705-16.292-25.378-31.33-25.378H15.001c-8.284 0-15 6.716-15 15s6.716 15 15 15h32.201c.952 0 1.786.671 1.981 1.596C56.564 487.067 87.391 512 122.984 512c45.199 0 80.31-39.509 74.869-84.439l32.212-4.344c19.166-2.585 32.594-20.181 30.005-39.351l-19.486-144.204c34.485-14.454 84.394-28.821 195.417-28.821h61c8.284 0 15-6.716 15-15V75.945c0-8.284-6.716-15-15-15zm-466.99 72.448C30.793 77.349 79.193 30 135.702 30c81.256 0 74.971 58.164 285.299 60.851v90.078c-211.334 2.524-201.139 58.861-286 58.861-58.1 0-105.812-47.298-104.99-106.397zm182.035 119.113l9.823 72.691-29.734 4.011-8.881-65.721c10.289-2.973 19.487-6.788 28.792-10.981zm14.009 140.981l-47.058 6.347-43.327 5.844a4.992 4.992 0 01-5.526-3.75L96.22 264.17c19.292 5.746 37.701 6.611 57.5 4.798l10.692 79.118c1.109 8.202 8.655 13.965 16.871 12.856l44.602-6.017 4.454 32.958c.369 2.724-1.547 5.235-4.284 5.604zm255.946-212.646h-31V90.945h31z"/></svg>