<svg version="1.1" id="Capa_1" xmlns="http://www.w3.org/2000/svg" x="0" y="0" viewBox="0 0 512.001 512.001" xml:space="preserve"><path d="M402.178 28.989C385.544 10.295 362.487 0 337.253 0c-28.166 0-52.581 13.318-70.606 38.513a120.76 120.76 0 00-3.801 5.648 119.433 119.433 0 00-3.8-5.648C241.02 13.318 216.605 0 188.439 0c-25.234 0-48.292 10.295-64.925 28.988-15.784 17.74-24.478 41.456-24.478 66.779 0 27.519 10.679 52.912 33.604 79.916 20.003 23.56 48.695 47.777 81.919 75.819 12.277 10.363 24.973 21.078 38.464 32.771a14.967 14.967 0 009.822 3.664 14.97 14.97 0 009.822-3.664c13.489-11.69 26.183-22.405 38.46-32.766 21.337-18.01 39.764-33.563 55.755-48.649 31.046-29.292 59.774-62.539 59.774-107.09 0-25.324-8.693-49.039-24.478-66.779zm-55.879 152.052c-15.386 14.517-33.52 29.822-54.517 47.544-9.341 7.883-18.921 15.969-28.936 24.557-10.017-8.587-19.6-16.675-28.941-24.56-65.399-55.199-104.875-88.517-104.875-132.814-.002-37.497 25.538-65.773 59.408-65.773 18.095 0 33.484 8.518 45.739 25.317 10.058 13.786 14.187 28.078 14.215 28.174a14.998 14.998 0 0028.906 0c.148-.535 15.33-53.491 59.955-53.491 33.869 0 59.41 28.277 59.41 65.773 0 27.169-14.121 51.077-50.364 85.273zm120.655 121.006c-12.441 0-24.442 5.223-32.925 14.329l-44.077 47.318c-5.697-18.316-22.805-31.653-42.971-31.653h-69.28a39.843 39.843 0 01-26.334-9.937c-39.163-34.464-98.029-34.767-137.564-.953-8.153-11.543-21.587-19.103-36.763-19.103H15.054c-8.282 0-14.997 6.714-14.997 14.997v179.96c0 8.282 6.714 14.997 14.997 14.997H77.04c13.468 0 25.564-5.957 33.816-15.365l8.881 2.496a344.898 344.898 0 0093.335 12.868H346.98c32.866 0 64.261-15.698 83.981-41.991l71.999-95.997.004-.006c5.875-7.834 8.98-17.16 8.98-26.971 0-24.807-20.183-44.989-44.99-44.989zM92.037 467.01c0 8.269-6.727 14.997-14.997 14.997H30.05V332.04h46.99c8.269 0 14.997 6.727 14.997 14.997V467.01zm386.93-110.996l-.002.002-71.998 95.999c-14.086 18.781-36.511 29.993-59.987 29.993H213.075a314.925 314.925 0 01-85.219-11.749l-5.865-1.649c.019-.532.041-1.063.041-1.599V353.816l10.451-9.197c28.24-24.85 70.831-24.852 99.073 0a69.815 69.815 0 0046.147 17.413h69.28c8.269 0 14.997 6.728 14.997 14.997s-6.727 14.997-14.997 14.997H240.398c-8.282 0-14.997 6.714-14.997 14.997s6.714 14.997 14.997 14.997h116.634c12.441 0 24.44-5.221 32.921-14.325l66.023-70.876c2.871-3.082 6.77-4.779 10.978-4.779 8.269 0 14.997 6.727 14.997 14.997 0 3.27-1.032 6.374-2.984 8.977z"/></svg>