<svg version="1.1" id="Layer_1" xmlns="http://www.w3.org/2000/svg" x="0" y="0" viewBox="0 0 512 512" xml:space="preserve"><path d="M256 0C114.509 0 0 114.497 0 256c0 141.491 114.497 256 256 256 141.49 0 256-114.497 256-256C512 114.51 397.503 0 256 0zm0 477.867c-122.337 0-221.867-99.529-221.867-221.867S133.663 34.133 256 34.133 477.867 133.663 477.867 256 378.337 477.867 256 477.867z"/><path d="M308.776 250.888h-55.79v-95.056c0-9.425-7.641-17.067-17.067-17.067s-17.067 7.641-17.067 17.067v112.122c0 9.425 7.641 17.067 17.067 17.067h72.856c9.425 0 17.067-7.641 17.067-17.067s-7.641-17.066-17.066-17.066z"/></svg>