<svg id="Capa_1" height="512" viewBox="0 0 506.051 506.051" width="512" xmlns="http://www.w3.org/2000/svg"><g id="XMLID_549_"><path id="XMLID_664_" d="M435.918 117.152H329.834V76.416C329.834 34.28 295.554 0 253.418 0h-.783C210.5 0 176.22 34.28 176.22 76.416v40.736H70.132L59.296 506.051h387.458zM206.22 76.416C206.22 50.822 227.042 30 252.636 30h.783c25.594 0 46.416 20.822 46.416 46.416v40.736H206.22zM90.144 476.051l9.164-328.899h307.435l9.164 328.899z"/><path id="XMLID_710_" d="M252.36 214.623l-67.053 51.979H159.86v30h15.58v78h-15.58v30h186.333v-30H329.28v-78h16.913v-30h-26.779zm0 37.958l18.087 14.021h-36.175zm-46.92 44.021h31.92v78h-31.92zm93.841 78H267.36v-78h31.921z"/></g></svg>