<svg version="1.1" id="Capa_1" xmlns="http://www.w3.org/2000/svg" x="0" y="0" viewBox="0 0 512 512" xml:space="preserve"><path d="M467 60h-15V45c0-24.813-20.187-45-45-45H75C50.187 0 30 20.187 30 45v15H15C6.716 60 0 66.716 0 75s6.716 15 15 15h15v15c0 24.813 20.187 45 45 45h332c24.813 0 45-20.187 45-45V90h15c8.271 0 15 6.729 15 15v90c0 8.271-6.729 15-15 15H286c-24.813 0-45 20.187-45 45v15h-15a15 15 0 00-14.853 12.906l-21.511 152.576C183.867 475.868 215.246 512 256 512c40.84 0 72.12-36.23 66.368-76.491l-21.515-152.603A14.999 14.999 0 00286 270h-15v-15c0-8.271 6.729-15 15-15h181c24.813 0 45-20.187 45-45v-90c0-24.813-20.187-45-45-45zm-45 45c0 8.271-6.729 15-15 15H75c-8.271 0-15-6.729-15-15V45c0-8.271 6.729-15 15-15h332c8.271 0 15 6.729 15 15v60zM292.665 439.725C295.853 462.038 278.516 482 256 482c-22.519 0-39.854-19.957-36.662-42.303L230.574 360h50.851l11.24 79.725zM272.966 300l4.23 30h-42.392l4.229-30h33.933z"/></svg>