<svg xmlns="http://www.w3.org/2000/svg" height="512" viewBox="0 -32 512 512" width="512"><path d="M342.383 239.352c-23.04-35.942-62.278-57.403-104.965-57.403-42.684 0-81.926 21.461-104.961 57.403l-55.516 86.605c-9.21 14.371-13.46 30.969-12.293 47.996 1.168 17.031 7.649 32.89 18.739 45.871 11.097 12.977 25.761 21.844 42.406 25.649 16.644 3.8 33.707 2.18 49.34-4.692l1.02-.453c39.34-16.957 84.304-16.805 123.546.453 10.121 4.45 20.844 6.7 31.664 6.7 5.883 0 11.801-.668 17.664-2.004 16.645-3.801 31.309-12.668 42.41-25.645 11.094-12.977 17.579-28.84 18.75-45.871 1.172-17.035-3.078-33.633-12.289-48.008zm26.246 160.972c-14.121 16.508-36.965 21.727-56.848 12.985-23.633-10.395-49-15.59-74.375-15.59-25.351 0-50.715 5.191-74.332 15.574l-.672.297c-19.73 8.344-42.238 3.058-56.203-13.266-14.105-16.512-15.71-39.887-3.992-58.172l55.52-86.605c17.492-27.29 47.28-43.582 79.691-43.582 32.41 0 62.203 16.293 79.7 43.582l55.51 86.601c11.724 18.293 10.114 41.672-4 58.176zM91.895 239.238c16.515-6.343 29.062-19.652 35.332-37.476 5.96-16.961 5.472-36.11-1.383-53.922-6.86-17.8-19.336-32.332-35.13-40.922-16.597-9.02-34.827-10.488-51.316-4.133-33.171 12.754-48.394 53.746-33.93 91.399 11.555 29.968 38.505 48.886 65.75 48.886a57.316 57.316 0 0020.677-3.832zm-58.418-55.836c-8.524-22.187-1.036-45.789 16.703-52.609a27.844 27.844 0 0110.047-1.848c5.336 0 10.847 1.457 16.152 4.344 9.539 5.184 17.16 14.184 21.457 25.336 4.293 11.16 4.676 22.941 1.074 33.18-3.3 9.382-9.617 16.28-17.781 19.418l-.016.007c-17.715 6.829-39.086-5.66-47.636-27.828zm166.136-12.015c41.469 0 75.207-38.438 75.207-85.684C274.82 38.445 241.082 0 199.613 0c-41.465 0-75.199 38.445-75.199 85.703 0 47.246 33.734 85.684 75.2 85.684zm0-141.375c24.918 0 45.196 24.984 45.196 55.691 0 30.695-20.278 55.672-45.196 55.672s-45.187-24.977-45.187-55.672c0-30.707 20.27-55.691 45.187-55.691zm129.883 162.426h.004a61.3 61.3 0 0019.367 3.128c30.242 0 59.715-22.011 70.961-55.84 6.477-19.472 6.05-40.062-1.2-57.972-7.585-18.746-21.644-32.356-39.589-38.324-17.945-5.961-37.363-3.477-54.664 7-16.527 10.011-29.191 26.246-35.656 45.718-13.653 41.079 4.64 84.274 40.777 96.29zM317.2 105.612c4.223-12.715 12.293-23.191 22.727-29.511 9.652-5.848 20.183-7.336 29.648-4.192 9.461 3.149 17 10.64 21.235 21.102 4.574 11.304 4.77 24.531.539 37.246-8.434 25.375-31.934 40.492-52.383 33.699-20.434-6.797-30.2-32.969-21.766-58.344zm170.675 76.826l-.012-.012c-28.597-21.125-71.367-11.969-95.347 20.422-23.957 32.406-20.211 75.972 8.343 97.113 10.414 7.715 22.72 11.402 35.313 11.402 21.95 0 44.785-11.203 60.047-31.804 23.957-32.407 20.215-75.973-8.344-97.122zm-15.777 79.265c-14.16 19.113-38.102 25.453-53.38 14.137-15.265-11.3-16.195-36.043-2.073-55.145 9.386-12.68 23.097-19.734 35.734-19.734 6.39 0 12.508 1.805 17.648 5.605 15.254 11.313 16.18 36.047 2.07 55.137zm0 0" data-original="#000000" class="active-path" data-old_color="#000000" fill="#34A1D3"/></svg>