<svg id="Capa_1" height="512" width="512" xmlns="http://www.w3.org/2000/svg"><path d="M15 512h482c8.284 0 15-6.716 15-15V227c0-8.284-6.716-15-15-15h-46v-15c0-8.284-6.716-15-15-15s-15 6.716-15 15v15h-53.642L316 158.931V120h45c8.284 0 15-6.716 15-15V15c0-8.284-6.716-15-15-15H151c-8.284 0-15 6.716-15 15v90c0 8.284 6.716 15 15 15h45v38.931L144.642 212H15c-8.284 0-15 6.716-15 15v270c0 8.284 6.716 15 15 15zm15-30V362h122.076c7.301 50.817 51.12 90 103.924 90s96.623-39.183 103.924-90H482v120zm151-135c0-41.355 33.645-75 75-75s75 33.645 75 75-33.645 75-75 75-75-33.645-75-75zM166 30h180v60H166zm120 90v30h-60v-30zM151 242c4.063 0 7.953-1.649 10.779-4.569L217.358 180h77.284l55.579 57.431A15 15 0 00361 242h121v90H359.924c-7.301-50.817-51.12-90-103.924-90s-96.623 39.183-103.924 90H30v-90z"/><path d="M256 392c24.813 0 45-20.187 45-45s-20.187-45-45-45-45 20.187-45 45 20.187 45 45 45zm0-60c8.271 0 15 6.729 15 15s-6.729 15-15 15-15-6.729-15-15 6.729-15 15-15zM76 302h30c8.284 0 15-6.716 15-15s-6.716-15-15-15H76c-8.284 0-15 6.716-15 15s6.716 15 15 15z"/></svg>