<svg version="1.1" id="Capa_1" xmlns="http://www.w3.org/2000/svg" x="0" y="0" viewBox="0 0 352 352" xml:space="preserve"><path d="M332 16.4C321.6 6 307.6 0 292 0H60C44.4 0 30.4 6.4 20 16.4 9.6 26.8 3.6 40.8 3.6 56.4v238.8c0 15.6 6.4 29.6 16.4 40 10.4 10.4 24.4 16.4 40 16.4h232v.4c15.6 0 29.6-6.4 40-16.4 10.4-10.4 16.4-24.4 16.4-40V56.4c0-15.6-6.4-29.6-16.4-40zm-4.8 242v37.2c0 9.6-4 18.4-10.4 24.8-6.4 6.4-15.2 10.4-24.8 10.4H60c-9.6 0-18.4-4-24.8-10.4-6.4-6.8-10-15.2-10-24.8v-50L96 174.4l60.4 60.4c4 4 10.8 4 15.2 0l89.2-89.6 66.4 66.4v46.8zm0-76.8l-58.8-59.2c-4-4-10.8-4.4-15.2 0L164 212l-60.4-60.4c-4-4-10.8-4.4-15.2 0l-63.2 63.6V56.4c0-9.6 3.6-18 10-24.4 6.4-6.4 15.2-10.4 24.8-10.4h232c9.6 0 18.4 4 24.8 10.4 6.4 6.4 10.4 15.2 10.4 24.8v124.8z"/><circle cx="162" cy="120.4" r="28.8"/></svg>