<svg height="512pt" viewBox="0 0 512 512" width="512pt" xmlns="http://www.w3.org/2000/svg"><path d="M472.43 39.563C446.934 14.05 413.016 0 376.94 0c-36.078 0-69.984 14.05-95.492 39.563l-120.945 120.94-120.95 120.958C14.052 306.973 0 340.89 0 376.957c0 36.066 14.05 69.984 39.555 95.48C65.05 497.95 98.969 512 135.043 512s69.984-14.05 95.488-39.563l120.95-120.94L472.43 230.538c25.504-25.512 39.55-59.43 39.55-95.496 0-36.066-14.046-69.984-39.55-95.48zM205.07 446.976c-18.71 18.707-43.582 29.015-70.027 29.015-26.457 0-51.32-10.305-70.027-29.015-18.707-18.711-29.004-43.57-29.004-70.016 0-26.445 10.304-51.328 29.004-70.035l108.218-108.227L313.29 338.77zm241.9-241.898L338.75 313.305l-140.055-140.07 108.22-108.212c18.706-18.707 43.577-29.015 70.026-29.015 26.454 0 51.317 10.304 70.024 29.015s29.004 43.57 29.004 70.016c0 26.445-10.301 51.328-29 70.04zm0 0"/><path d="M425.094 121.414c-5.742 0-11.387-2.742-14.875-7.824-8.426-12.309-22.324-19.64-37.192-19.64-12.027 0-23.324 4.675-31.836 13.187-7.035 7.031-18.43 7.031-25.46 0-7.032-7.035-7.032-18.43 0-25.461 15.308-15.317 35.652-23.739 57.296-23.739a81.066 81.066 0 0166.907 35.293c5.617 8.207 3.527 19.41-4.684 25.04a17.932 17.932 0 01-10.156 3.144zm0 0"/></svg>