<svg id="Layer_1" height="512" width="512" xmlns="http://www.w3.org/2000/svg"><path d="M497 168.7h-49.267V71.233c0-8.284-6.716-15-15-15H15c-8.284 0-15 6.716-15 15V328.3c0 8.284 6.716 15 15 15h49.267v97.467c0 8.284 6.716 15 15 15H497c8.284 0 15-6.716 15-15V183.7c0-8.284-6.716-15-15-15zM30 86.233h291.333V111.4c0 8.284 6.716 15 15 15s15-6.716 15-15V86.233h66.4V313.3h-66.4v-25.167c0-8.284-6.716-15-15-15s-15 6.716-15 15V313.3H30zm452 339.534h-66.4V400.6c0-8.284-6.716-15-15-15s-15 6.716-15 15v25.167H94.267V343.3h125.52l-22.594 22.594c-5.858 5.858-5.858 15.355 0 21.213 5.857 5.858 15.355 5.858 21.213 0l43.806-43.806h170.521c8.284 0 15-6.716 15-15V198.7H482z"/><path d="M336.333 238.867c8.284 0 15-6.716 15-15v-48.2c0-8.284-6.716-15-15-15s-15 6.716-15 15v48.2c0 8.284 6.716 15 15 15zM84.727 226.439c5.857 5.858 15.355 5.858 21.213 0l11.673-11.673h53.974l-38.66 38.66c-5.858 5.858-5.858 15.355 0 21.213 5.857 5.858 15.355 5.858 21.213 0l59.873-59.873H256c8.284 0 15-6.716 15-15s-6.716-15-15-15h-41.987l-59.873-59.873c-5.857-5.858-15.355-5.858-21.213 0s-5.858 15.355 0 21.213l38.66 38.66h-53.974l-11.673-11.673c-5.857-5.858-15.355-5.858-21.213 0s-5.858 15.355 0 21.213l5.46 5.46-5.46 5.46c-5.858 5.858-5.858 15.356 0 21.213z"/></svg>