<svg version="1.1" id="Layer_1" xmlns="http://www.w3.org/2000/svg" x="0" y="0" viewBox="0 0 512.001 512.001" xml:space="preserve"><path d="M441.618 388.928l-77.504-97.965h93.872c7.173 0 12.989-5.817 12.989-12.989v-51.958c0-7.173-5.817-12.989-12.989-12.989H302.457l-26.649-33.685 94.745-85.255a12.993 12.993 0 00.498-18.841C318.659 22.857 237.523 16.341 177.959 55.66l-32.333-40.87C138.189 5.391 127.051 0 115.065 0H28.036c-7.173 0-12.989 5.817-12.989 12.989v51.958c0 7.173 5.817 12.989 12.989 12.989h68.169l58.658 74.144 37.259 193.953-35.812 42.643a63.09 63.09 0 00-2.925-.074c-34.021 0-61.7 27.679-61.7 61.7s27.679 61.7 61.7 61.7 61.7-27.679 61.7-61.7c0-3.245-.256-6.431-.74-9.542l37.441-44.582h96.192l28.347 35.831a61.48 61.48 0 00-2.768 18.292c0 34.021 27.679 61.7 61.7 61.7s61.7-27.679 61.7-61.7c-.003-31.874-24.297-58.179-55.339-61.373zm3.379-149.923v25.979h-101.52c-.053-.047-20.467-25.979-20.467-25.979h121.987zM342.452 84.426l-82.796 74.5-65.489-82.778c45.537-28.909 105.525-26.178 148.285 8.278zM189.8 196.24l62.147 78.555-38.295 45.602L189.8 196.24zm-36.416 289.781c-19.696 0-35.721-16.025-35.721-35.721 0-19.696 16.025-35.721 35.721-35.721s35.721 16.025 35.721 35.721c0 19.696-16.024 35.721-35.721 35.721zm49.691-72.24a62.137 62.137 0 00-19.453-17.232l84.781-100.952 16.456 20.801-81.784 97.383zm70.526-43.583l27.714-33.001 26.109 33.001h-53.823zm116.83 37.771L112.681 56.888a12.99 12.99 0 00-10.188-4.931H41.027V25.979h74.04a12.92 12.92 0 0110.186 4.93l286.63 362.303a61.9 61.9 0 00-21.452 14.757zm44.824 78.052c-19.696 0-35.721-16.025-35.721-35.721 0-19.696 16.025-35.721 35.721-35.721s35.721 16.025 35.721 35.721c0 19.696-16.024 35.721-35.721 35.721z"/></svg>