<svg id="Capa_1" height="512" width="512" xmlns="http://www.w3.org/2000/svg"><path d="M377.05 306.339l-53.875-53.875 40.704-40.704 31.82 31.82c6.61 6.61 15.4 10.252 24.749 10.252s18.138-3.642 24.749-10.252l56.568-56.569c13.646-13.646 13.646-35.851 0-49.497L374.486 10.235c-13.646-13.646-35.85-13.646-49.498 0L268.42 66.804c-13.646 13.646-13.646 35.851 0 49.497l31.819 31.819-40.704 40.704-53.874-53.875c10.953-36.731 1.087-76.694-26.416-104.197C150.923 2.43 109.663-7.228 71.568 5.546a15 15 0 00-7.064 23.441l41.73 53.563-23.684 23.685-53.563-41.732a14.998 14.998 0 00-23.44 7.064c-12.776 38.096-3.118 79.355 25.206 107.678 27.503 27.504 67.467 37.371 104.198 26.417l53.875 53.874-54.594 54.594a14.996 14.996 0 00-21.198.014l-95.459 95.46C6.241 420.935 0 436.002 0 452.028s6.241 31.094 17.574 42.426v.001C29.271 506.152 44.635 512 60 512s30.729-5.848 42.426-17.545l95.459-95.46c5.858-5.857 5.858-15.355 0-21.213l-.014-.014 54.593-54.593 53.874 53.874c-10.953 36.731-1.087 76.694 26.416 104.198 20.056 20.057 46.597 30.754 73.91 30.753 11.258 0 22.649-1.818 33.768-5.547a15 15 0 007.064-23.441l-41.73-53.563 23.684-23.684 53.563 41.73a14.998 14.998 0 0023.44-7.064c12.776-38.096 3.118-79.355-25.206-107.678-27.503-27.502-67.465-37.366-104.197-26.414zM288.169 91.552c0-.772.19-2.261 1.465-3.535l56.568-56.569a4.98 4.98 0 013.536-1.465c.774 0 2.261.19 3.536 1.465l127.279 127.279a4.979 4.979 0 011.464 3.536c0 .772-.19 2.261-1.465 3.535l-56.568 56.569a4.98 4.98 0 01-3.536 1.465c-.774 0-2.261-.19-3.536-1.465L289.633 95.088a4.977 4.977 0 01-1.464-3.536zm-138.665 86.236a15.002 15.002 0 00-16.249-3.292 74.897 74.897 0 01-81.29-16.465c-14.777-14.777-22.434-34.498-21.92-54.674l44.521 34.688c5.97 4.649 14.472 4.126 19.825-1.227l42.426-42.427a15 15 0 001.227-19.825l-34.686-44.521c20.166-.513 39.896 7.145 54.673 21.921 21.373 21.372 27.835 53.28 16.464 81.288a14.999 14.999 0 003.292 16.249l60.534 60.535-28.285 28.284zM81.213 473.242c-11.697 11.694-30.73 11.696-42.426-.001-5.666-5.666-8.787-13.2-8.787-21.213s3.121-15.547 8.787-21.213l84.853-84.854 42.426 42.427zm74.232-137.901l166.008-166.008 21.214 21.214-166.009 166.008zm326.509 73.301l-44.521-34.687c-5.972-4.651-14.474-4.127-19.825 1.227l-42.426 42.426a15 15 0 00-1.227 19.825l34.687 44.521c-20.166.529-39.897-7.144-54.673-21.92a74.897 74.897 0 01-16.464-81.289 14.999 14.999 0 00-3.292-16.249l-60.534-60.534 28.285-28.285 60.534 60.535a14.997 14.997 0 0016.249 3.292 74.898 74.898 0 0181.29 16.464c14.775 14.777 22.431 34.498 21.917 54.674z"/></svg>