<svg version="1.1" id="Capa_1" xmlns="http://www.w3.org/2000/svg" x="0" y="0" viewBox="0 0 512 512" xml:space="preserve"><path d="M120 0C53.832 0 0 53.832 0 120s53.832 120 120 120 120-53.832 120-120S186.168 0 120 0zm0 210c-49.626 0-90-40.374-90-90s40.374-90 90-90 90 40.374 90 90-40.374 90-90 90z"/><path d="M162.426 141.213c-5.858-5.858-15.356-5.858-21.213 0-5.653 5.653-13.187 8.766-21.213 8.766s-15.56-3.113-21.213-8.766c-5.856-5.858-15.354-5.857-21.213 0-5.858 5.858-5.858 15.355 0 21.213 11.318 11.319 26.386 17.553 42.426 17.553s31.107-6.234 42.426-17.553c5.858-5.858 5.858-15.355 0-21.213zM120 272C53.832 272 0 325.832 0 392s53.832 120 120 120 120-53.832 120-120-53.832-120-120-120zm0 210c-49.626 0-90-40.374-90-90s40.374-90 90-90 90 40.374 90 90-40.374 90-90 90z"/><circle cx="75" cy="105" r="15"/><circle cx="165" cy="105" r="15"/><path d="M162.426 426.373C151.107 415.054 136.04 408.82 120 408.82s-31.107 6.234-42.426 17.553c-5.858 5.858-5.858 15.355 0 21.213 5.857 5.857 15.355 5.858 21.213 0 5.653-5.653 13.187-8.766 21.213-8.766s15.56 3.113 21.213 8.766c5.857 5.858 15.354 5.858 21.213 0 5.858-5.858 5.858-15.355 0-21.213z"/><circle cx="75" cy="377" r="15"/><circle cx="165" cy="377" r="15"/><path d="M497 0H287c-8.284 0-15 6.716-15 15v210c0 8.284 6.716 15 15 15h210c8.284 0 15-6.716 15-15V15c0-8.284-6.716-15-15-15zm-15 210H302V30h180v180zm15 62H287c-8.284 0-15 6.716-15 15v210c0 8.284 6.716 15 15 15h210c8.284 0 15-6.716 15-15V287c0-8.284-6.716-15-15-15zm-15 210H302V302h180v180z"/><path d="M447.607 79.393c-5.857-5.858-15.355-5.858-21.213 0L377 128.787l-19.394-19.393c-5.857-5.858-15.355-5.858-21.213 0-5.858 5.858-5.858 15.355 0 21.213l30.001 29.999c5.857 5.858 15.356 5.858 21.213 0l60-60c5.858-5.858 5.858-15.355 0-21.213z"/></svg>