<svg id="Capa_1" height="512" viewBox="0 0 511.961 511.961" width="512" xmlns="http://www.w3.org/2000/svg"><path d="M511.959 291.756c-.246-58.693-23.572-102.953-54.259-102.953-14.182 0-29.468 8.395-48.821 19.023-23.678 13.003-53.146 29.187-82.936 29.187-30.119 0-55.417-15.251-66-27.78C285.234 186.573 300 154.11 300 120.025c0-66.168-53.832-120-120-120-55.813 0-102.848 38.301-116.203 90H15c-8.284 0-15 6.716-15 15 0 41.355 33.645 75 75 75h1.105a119.725 119.725 0 008.652 12.892c-69.429 59.35-83.655 176.536-6.315 253.232 41.626 41.279 103.539 65.789 165.98 65.787.663 0 1.332-.003 1.994-.008 48.092-.402 90.881-7.699 127.178-21.686 89.076-34.327 138.734-110.153 138.365-198.486zM32.57 120.025H60c0 9.725 1.167 19.266 3.409 28.478-14.358-3.832-25.916-14.595-30.839-28.478zm213.596 361.904c-.591.005-1.172.007-1.763.007-54.684-.002-108.717-21.27-144.836-57.089-28.21-27.975-43.121-62.431-43.121-99.643v-.478c-.027-28.462 7.571-81.572 58.76-117.489a15 15 0 001.881-22.993C59.503 127.826 99.93 30.025 180 30.025c49.626 0 90 40.374 90 90 0 28.895-14.207 56.261-38.002 73.205a14.998 14.998 0 00-5.65 16.584c8.229 27.054 51.157 57.199 99.596 57.199 37.485 0 70.693-18.237 97.377-32.891 13.075-7.18 27.895-15.319 34.38-15.319 6.156 0 24.059 25.127 24.259 73.078.379 90.918-61.364 188.588-235.794 190.048z"/><circle cx="135" cy="105.025" r="15"/><path d="M354.188 344.654a15.006 15.006 0 00-1.022-11.593c-15.43-29.181-53.962-48.036-98.165-48.036-26.969 0-52.524 7.136-71.96 20.093C161.734 319.322 150 338.821 150 360.025s11.734 40.703 33.04 54.907c19.436 12.957 44.991 20.093 71.96 20.093 44.204 0 82.735-18.855 98.165-48.037a15.002 15.002 0 00-6.553-20.428l-13.071-6.536 13.071-6.536a14.996 14.996 0 007.576-8.834zM255 405.025c-40.654 0-75-20.607-75-45 0-24.392 34.346-45 75-45 24.694 0 47.777 7.753 61.698 19.88l-23.406 11.703a15 15 0 000 26.834l23.407 11.704c-13.922 12.126-37.005 19.879-61.699 19.879z"/></svg>