<svg id="Capa_1" height="512" width="512" xmlns="http://www.w3.org/2000/svg"><path d="M430.865 382.271V62.173C430.865 27.891 402.975 0 368.692 0H78.664C44.381 0 16.49 27.891 16.49 62.173v67.556h94.347v320.098c0 34.283 27.891 62.173 62.173 62.173h260.327c34.283 0 62.173-27.891 62.173-62.173v-67.556zM110.837 99.729H46.49V62.173C46.49 44.433 60.923 30 78.664 30s32.173 14.433 32.173 32.173zm94.346 350.098c0 17.74-14.433 32.173-32.173 32.173s-32.173-14.433-32.173-32.173V62.173A61.794 61.794 0 00131.847 30h236.845c17.74 0 32.173 14.433 32.173 32.173v320.098H205.183zm260.327 0c0 17.74-14.433 32.173-32.173 32.173H226.194a61.793 61.793 0 008.989-32.173v-37.556H465.51z"/><path d="M185.836 74.107h85.014v30h-85.014zm140.029 0h30v30h-30zm-140.029 58.514h170.028v30H185.836zm0 58.515h170.028v30H185.836zm0 58.514h170.028v30H185.836zm0 58.515h170.028v30H185.836z"/></svg>