<svg height="512pt" viewBox="0 -11 512 512" width="512pt" xmlns="http://www.w3.org/2000/svg"><path d="M510.645 185.012c-3.88-11.934-15.426-20.133-31.684-22.496l-132.512-19.258-59.265-120.074C279.914 8.454 268.547 0 256 0s-23.914 8.453-31.184 23.188l-59.257 120.07-132.516 19.258c-16.262 2.363-27.813 10.562-31.688 22.496-3.875 11.933.649 25.355 12.415 36.82l95.89 93.465-22.64 131.98c-2.895 16.88 2.039 26.993 6.687 32.508 5.453 6.469 13.406 10.031 22.395 10.031 6.761 0 13.953-1.98 21.378-5.882L256 421.625l118.527 62.313c7.422 3.902 14.614 5.878 21.375 5.878h.004c8.985 0 16.942-3.562 22.395-10.03 4.644-5.513 9.582-15.63 6.683-32.509l-22.636-131.98 95.886-93.465c11.762-11.465 16.286-24.887 12.41-36.82zm0 0"/></svg>