<svg version="1.1" id="Capa_1" xmlns="http://www.w3.org/2000/svg" x="0" y="0" viewBox="0 0 512 512" xml:space="preserve"><path d="M466.5 241h-95.525c30.785-24.948 50.525-63.192 50.525-106 0-8.284-6.716-15-15-15h-45v-15c0-8.284-6.716-15-15-15s-15 6.716-15 15v15h-60V45c0-24.813-20.187-45-45-45h-30c-8.284 0-15 6.716-15 15s6.716 15 15 15h30c8.271 0 15 6.729 15 15v75h-60v-15c0-8.284-6.716-15-15-15s-15 6.716-15 15v15h-45c-8.284 0-15 6.716-15 15 0 42.541 19.74 81.052 50.525 106H45.5c-8.284 0-15 6.716-15 15v241c0 8.284 6.716 15 15 15h61a14.999 14.999 0 0014.246-10.304L147.349 421h218.302l26.603 80.696A14.999 14.999 0 00406.5 512h60c8.284 0 15-6.716 15-15V256c0-8.284-6.716-15-15-15zm-343.952-91.1h267.904C383.213 201.271 339.354 241 286.5 241h-60c-52.854 0-96.713-39.729-103.952-91.1zM95.651 482H60.5v-61h55.261l-20.11 61zM241.5 391h-181V271h181v120zm210 91h-34.151l-20.109-61h54.26v61zm0-91h-180V271h180v120z"/><path d="M316.5 301c-8.284 0-15 6.716-15 15v30c0 8.284 6.716 15 15 15s15-6.716 15-15v-30c0-8.284-6.716-15-15-15zm-120 0c-8.284 0-15 6.716-15 15v30c0 8.284 6.716 15 15 15s15-6.716 15-15v-30c0-8.284-6.716-15-15-15z"/></svg>