<svg id="Capa_1" height="512" width="512" xmlns="http://www.w3.org/2000/svg"><path d="M498.35 361.534V325.5c0-38.496-31.319-69.815-69.816-69.815-101.945 0-184.883-82.938-184.883-184.884v-15h-230v305.733H0V456.2h512v-94.666zm-30-36.034v36.034h-65.2v-77.335a218.491 218.491 0 0025.383 1.485c21.955 0 39.817 17.861 39.817 39.816zm-95.2-13.476a242.915 242.915 0 01-52.993-18.292l17.059-28.298a212.242 212.242 0 0035.934 13.069zm-62.125-61.25l-17.08 28.332a249.607 249.607 0 01-51.515-43.955l30.562-16.089a217.02 217.02 0 0038.033 31.712zm-57.577-55.326l-29.916 15.749a249.15 249.15 0 01-25.409-46.443h37.038a213.382 213.382 0 0018.287 30.694zm-30.157-60.695H187.86a243.882 243.882 0 01-8.065-48.953h34.367a214.513 214.513 0 009.129 48.953zM149.742 85.8a277.11 277.11 0 007.07 48.953H43.65V85.8zM43.65 164.753h122.096a276.512 276.512 0 0051.706 87.981c40.633 46.602 95.527 78.209 155.698 89.923v18.875H43.65zM30 391.534h279.75V426.2H30zM482 426.2H339.75v-34.666H482z"/><path d="M122.333 205.869c-29.676 0-53.819 24.144-53.819 53.819s24.143 53.819 53.819 53.819 53.819-24.144 53.819-53.819-24.143-53.819-53.819-53.819zm0 77.638c-13.134 0-23.819-10.686-23.819-23.819s10.685-23.819 23.819-23.819 23.819 10.686 23.819 23.819-10.685 23.819-23.819 23.819z"/></svg>