<svg version="1.1" id="Capa_1" xmlns="http://www.w3.org/2000/svg" x="0" y="0" viewBox="0 0 512 512" xml:space="preserve"><path d="M437.02 74.98C388.667 26.629 324.38 0 256 0S123.333 26.629 74.98 74.98C26.629 123.333 0 187.62 0 256s26.629 132.667 74.98 181.02C123.333 485.371 187.62 512 256 512s132.667-26.629 181.02-74.98C485.371 388.667 512 324.38 512 256s-26.629-132.667-74.98-181.02zm6.514 55.028c18.767 27.843 31.488 60.075 36.304 94.801l-2.882 2.492-56.512-32.398 13.548-63.672 9.542-1.223zM338.767 45.695c32.165 12.702 60.735 32.588 83.738 57.66-8.874 3.495-15.646 11.244-17.693 20.862l-13.88 65.233a29.192 29.192 0 00-.403 2.389l-40.147 17.927-74.214-54.033a34.522 34.522 0 00-5.168-3.096v-43.975a29.418 29.418 0 002.018-1.342l53.904-39.271c7.304-5.322 11.537-13.645 11.845-22.354zM205.881 326.804l-28.484-87.818a4.26 4.26 0 011.55-4.771l74.537-54.229a4.259 4.259 0 015.026.001l74.544 54.272a4.26 4.26 0 011.549 4.771l-28.483 87.774a4.26 4.26 0 01-4.063 2.953h-92.113a4.26 4.26 0 01-4.063-2.953zm.1-291.215A225.834 225.834 0 01256 30a225.92 225.92 0 0150.008 5.586l2.613 8.678-52.614 38.332-52.625-38.391 2.599-8.616zM173.24 45.691c.325 8.681 4.546 16.974 11.826 22.286l53.913 39.331c.66.481 1.335.928 2.022 1.347v43.978a34.567 34.567 0 00-5.166 3.093l-74.254 54.022-40.109-17.91a29.627 29.627 0 00-.403-2.389l-13.88-65.232c-2.047-9.618-8.818-17.367-17.693-20.862 23.004-25.073 51.576-44.96 83.744-57.664zM68.466 130.008l9.542 1.223 13.548 63.672-56.511 32.398-2.883-2.492c4.816-34.726 17.537-66.958 36.304-94.801zm-4.128 245.61c-21.56-34.421-34.113-75.028-34.324-118.505a28.836 28.836 0 0019.27-3.394l57.896-33.192a29.41 29.41 0 002.053-1.296l37.999 16.968a34.288 34.288 0 001.629 12.045l28.484 87.818c.258.796.552 1.571.862 2.337l-26.804 34.195a29.321 29.321 0 00-2.422-.187l-66.694-2.304c-6.582-.22-12.853 1.822-17.949 5.515zm17.704 24.494l65.095 2.249 17.054 60.132c-31.977-14.274-60.055-35.758-82.149-62.381zm252.835-6.716l-18.198 64.162c-1.532 5.4-1.403 10.978.131 16.122-19.357 5.415-39.749 8.32-60.81 8.32-21.51 0-42.325-3.023-62.049-8.662a28.82 28.82 0 00.023-15.779l-18.197-64.162a29.637 29.637 0 00-.759-2.301l25.592-32.649a34.37 34.37 0 009.334 1.31h92.113c2.824 0 5.583-.345 8.233-.997l25.346 32.335a29.218 29.218 0 00-.759 2.301zm11.394 69.77l17.246-60.806 65.102-2.249c.141.354.305.691.469 1.029-22.316 26.57-50.619 47.942-82.817 62.026zm82.098-93.064l-66.696 2.304a29.33 29.33 0 00-2.421.187l-25.942-33.095a34.67 34.67 0 001.346-3.435l28.483-87.775a34.31 34.31 0 001.628-12.091l38.001-16.968c.662.456 1.346.891 2.054 1.297l57.896 33.192a28.822 28.822 0 0019.269 3.394c-.214 43.764-12.929 84.622-34.751 119.188-5.252-4.133-11.894-6.436-18.867-6.198z"/></svg>