<svg version="1.1" id="Layer_1" xmlns="http://www.w3.org/2000/svg" x="0" y="0" viewBox="0 0 512 512" xml:space="preserve"><path d="M52.772 175.377v247.178h267.941V175.377H52.772zm237.973 217.21H82.74V205.345h208.005v187.242zm105.686-217.21c-26.335 0-47.759 21.425-47.759 47.76s21.424 47.759 47.759 47.759 47.76-21.425 47.76-47.759-21.425-47.76-47.76-47.76zm0 65.551c-9.81 0-17.791-7.981-17.791-17.791s7.981-17.792 17.791-17.792 17.792 7.981 17.792 17.792-7.981 17.791-17.792 17.791zm-47.185 49.58h94.639v29.968h-94.639zm0 49.278h94.639v29.968h-94.639zm0 50.096h94.639v29.968h-94.639z"/><path d="M182.285 129.77l69.199-114.245L225.851 0l-78.603 129.77h-15.21L53.434 0 27.802 15.526 97 129.77H6.094v338.392H43.21L65.13 512h381.742l21.918-43.837h37.116V129.77H182.285zM428.35 482.032H83.651l-6.935-13.869h358.57l-6.936 13.869zm47.589-43.838H36.062V159.738h439.877v278.456z"/></svg>