<svg height="512pt" viewBox="0 0 512 512" width="512pt" xmlns="http://www.w3.org/2000/svg"><path d="M482 333.582V127.613l20.25-7.562a14.999 14.999 0 00.05-28.082l-241-91a14.962 14.962 0 00-10.597 0l-241 91a14.997 14.997 0 00.05 28.082L91 150.395V259.75a14.998 14.998 0 009.43 13.926c49.699 19.883 102.043 29.96 155.57 29.96s105.871-10.077 155.57-29.96A14.998 14.998 0 00421 259.75V150.395l31-11.579v194.766c-17.457 6.191-30 22.863-30 42.418 0 11.516 4.355 22.031 11.496 30-7.14 7.969-11.496 18.484-11.496 30v61c0 8.285 6.715 15 15 15h60c8.285 0 15-6.715 15-15v-61c0-11.516-4.355-22.031-11.496-30 7.144-7.969 11.496-18.484 11.496-30 0-19.555-12.54-36.227-30-42.418zM256 31.035l198.332 74.887c-8.781 3.281-189.586 70.8-198.332 74.066-6.605-2.465-184.098-68.75-198.332-74.066zm135 218.422c-87.445 32.41-182.555 32.41-270 0v-87.86l129.754 48.458a15.026 15.026 0 0010.496 0L391 161.598zM467 361c8.27 0 15 6.73 15 15 0 8.273-6.73 15-15 15s-15-6.727-15-15c0-8.27 6.73-15 15-15zm15 121h-30v-46c0-8.27 6.73-15 15-15s15 6.73 15 15zm0 0"/><path d="M271 106c0 8.285-6.715 15-15 15s-15-6.715-15-15 6.715-15 15-15 15 6.715 15 15zm0 0"/></svg>