<svg version="1.1" id="Capa_1" xmlns="http://www.w3.org/2000/svg" x="0" y="0" viewBox="0 0 512 512" xml:space="preserve"><path d="M497 421h-15v-90h15a15 15 0 009-27l-54-40.5v-52.863c38.638-2.253 60-19.573 60-59.637 0-23.695-7.449-59.39-18.537-88.821C477.92 20.92 458.923 0 437 0c-21.923 0-40.92 20.92-56.463 62.179C369.449 91.611 362 127.305 362 151c0 40.017 21.529 57.394 60 59.637V241l-36-27a15 15 0 00-18 0l-66 49.5v-91.25l4.438 4.401c5.874 5.826 15.354 5.795 21.191-.066s5.827-15.342-.022-21.191L206.563 35.35c-5.864-5.816-15.328-5.798-21.169.044l-120 120c-5.859 5.859-5.858 15.355 0 21.213 5.857 5.858 15.355 5.858 21.213 0L91 172.214v42.938l-80.696 26.603A14.999 14.999 0 000 256v241c0 8.284 6.716 15 15 15h482c8.284 0 15-6.716 15-15v-61c0-8.284-6.716-15-15-15zM452 44.728c4.083 6.447 8.664 15.483 13.39 28.027 2.668 7.084 5.023 14.37 7.061 21.584L452 107.973V44.728zm0 99.3l27.499-18.332C481.154 135.687 482 144.48 482 151c0 20.903-5.742 27.919-30 29.575v-36.547zm-43.39-71.273c4.726-12.544 9.307-21.58 13.39-28.027v63.244l-20.451-13.634c2.038-7.213 4.393-14.499 7.061-21.583zM392 151c0-6.521.846-15.313 2.501-25.304L422 144.028v36.547c-24.258-1.656-30-8.672-30-29.575zm-15 93.75l80.042 60.032A14.965 14.965 0 00452 316v105h-30v-75c0-8.284-6.716-15-15-15h-60c-8.284 0-15 6.716-15 15v75h-30V316c0-4.386-1.977-8.495-5.042-11.218L377 244.75zM392 361v60h-30v-60h30zM121 142.214l75.044-75.044L272 142.498V286l-24 18a15 15 0 009 27h15v90h-31v-45c0-24.813-20.187-45-45-45s-45 20.187-45 45v45h-30V142.214zM211 376v45h-30v-45c0-8.271 6.729-15 15-15s15 6.729 15 15zM30 391h15c8.284 0 15-6.716 15-15s-6.716-15-15-15H30v-30h15c8.284 0 15-6.716 15-15s-6.716-15-15-15H30v-34.15l61-20.11V421H30v-30zm452 91H30v-31h452v31z"/><path d="M196 151c-24.813 0-45 20.187-45 45s20.187 45 45 45 45-20.187 45-45-20.187-45-45-45zm0 60c-8.271 0-15-6.729-15-15s6.729-15 15-15 15 6.729 15 15-6.729 15-15 15z"/></svg>