<svg id="Capa_1" height="512" width="512" xmlns="http://www.w3.org/2000/svg"><path d="M386.092 115.846c0-30.767-25.031-55.798-55.798-55.798h-29.27V0h-90.049v60.048h-29.27c-30.767 0-55.798 25.031-55.798 55.798v124.68l16.988 25.482-16.988 25.482V512h260.184V291.49l-16.988-25.482 16.988-25.482v-124.68zM240.976 30h30.049v30.048h-30.049zm-59.27 60.048h148.588c14.225 0 25.798 11.573 25.798 25.798v4.25H155.908v-4.25c0-14.225 11.573-25.798 25.798-25.798zm174.386 210.525V482H155.908V300.573l23.043-34.565-23.043-34.565v-81.346h200.184v81.346l-23.043 34.565z"/></svg>