<svg xmlns="http://www.w3.org/2000/svg" width="25" height="10"><defs><clipPath id="zr0ka"><path fill="#fff" d="M5 0h5v5H5z"/></clipPath><clipPath id="zr0kb"><path fill="#fff" d="M0 5h5v5H0z"/></clipPath><clipPath id="zr0kc"><path fill="#fff" d="M10 5h5v5h-5z"/></clipPath><clipPath id="zr0kd"><path fill="#fff" d="M15 0h5v5h-5z"/></clipPath><clipPath id="zr0ke"><path fill="#fff" d="M20 5h5v5h-5z"/></clipPath></defs><path fill="none" stroke="#34a1d3" stroke-miterlimit="20" stroke-width="4" d="M5 0v0h5v5H5v0z" clip-path="url(&quot;#zr0ka&quot;)"/><path fill="none" stroke="#34a1d3" stroke-miterlimit="20" stroke-width="4" d="M0 5v0h5v5H0v0z" clip-path="url(&quot;#zr0kb&quot;)"/><path fill="none" stroke="#34a1d3" stroke-miterlimit="20" stroke-width="4" d="M10 5v0h5v5h-5v0z" clip-path="url(&quot;#zr0kc&quot;)"/><path fill="none" stroke="#34a1d3" stroke-miterlimit="20" stroke-width="4" d="M15 0v0h5v5h-5v0z" clip-path="url(&quot;#zr0kd&quot;)"/><path fill="none" stroke="#34a1d3" stroke-miterlimit="20" stroke-width="4" d="M20 5v0h5v5h-5v0z" clip-path="url(&quot;#zr0ke&quot;)"/></svg>